HIERARCHY
ROOT ui
{
	 OFFSET 0 0 0
	 CHANNELS 3 XPosition YPosition Z Position
	 EndSite
	 {
	 OFFSET 0 -1 0
	 }
}
ROOT li
{
	 OFFSET 0 0 0
	 CHANNELS 3 XPosition YPosition Z Position
	 EndSite
	 {
	 OFFSET 0 -1 0
	 }
}
ROOT ul
{
	 OFFSET 0 0 0
	 CHANNELS 3 XPosition YPosition Z Position
	 EndSite
	 {
	 OFFSET 0 -1 0
	 }
}
ROOT ll
{
	 OFFSET 0 0 0
	 CHANNELS 3 XPosition YPosition Z Position
	 EndSite
	 {
	 OFFSET 0 -1 0
	 }
}
ROOT tt
{
	 OFFSET 0 0 0
	 CHANNELS 3 XPosition YPosition Z Position
	 EndSite
	 {
	 OFFSET 0 -1 0
	 }
}
ROOT tb
{
	 OFFSET 0 0 0
	 CHANNELS 3 XPosition YPosition Z Position
	 EndSite
	 {
	 OFFSET 0 -1 0
	 }
}
ROOT td
{
	 OFFSET 0 0 0
	 CHANNELS 3 XPosition YPosition Z Position
	 EndSite
	 {
	 OFFSET 0 -1 0
	 }
}
ROOT v
{
	 OFFSET 0 0 0
	 CHANNELS 3 XPosition YPosition Z Position
	 EndSite
	 {
	 OFFSET 0 -1 0
	 }
}
ROOT bn
{
	 OFFSET 0 0 0
	 CHANNELS 3 XPosition YPosition Z Position
	 EndSite
	 {
	 OFFSET 0 -1 0
	 }
}
MOTION
Frames: 10
Frame Time: 0.002
-0.0026132800579071044	0.005680844783782959	0		0.4496556091308594	-2.32827734375	0		-0.9259641723632812	0.062462116241455076	0		-0.5948206787109375	-2.358958251953125	0		1.731378173828125	-0.4764741516113281	0		3.370048583984375	-0.4343707275390625	0		4.62357421875	-0.24434306335449218	0		6.00128369140625	0.508146484375	0		-0.17931716918945312	5.9104150390625	0		
0.007195555210113526	-0.003164608955383301	0		0.49356201171875	-2.325568359375	0		-0.931973876953125	0.06784091186523437	0		-0.6400354614257813	-2.365087646484375	0		1.725190185546875	-0.48415460205078126	0		3.352875	-0.44094793701171875	0		4.62732666015625	-0.257216552734375	0		5.9883359375	0.5174571533203125	0		-0.19634652709960937	5.90391845703125	0		
-0.00990255832672119	-6.440160274505615E-4	0		0.48930667114257814	-2.330227783203125	0		-0.9439678955078125	0.07832372283935547	0		-0.5825018920898437	-2.386507080078125	0		1.7179622802734376	-0.490810546875	0		3.35457080078125	-0.4537652587890625	0		4.62311767578125	-0.262994140625	0		5.99622509765625	0.5174863891601562	0		-0.1963024139404297	5.90422705078125	0		
-0.01007863712310791	-3.1853899359703065E-4	0		0.4870247802734375	-2.3318935546875	0		-0.9560119018554688	0.08883465576171876	0		-0.6169371948242187	-2.39972412109375	0		1.708615966796875	-0.5024280700683593	0		3.36027587890625	-0.46163214111328127	0		4.634931640625	-0.262982421875	0		5.99606689453125	0.5176048583984375	0		-0.1962749786376953	5.90455908203125	0		
-4.228140115737915E-4	-0.009098728179931641	0		0.47649884033203127	-2.347435546875	0		-0.9511846313476563	0.09315562438964843	0		-0.5805469970703125	-2.421826904296875	0		1.7418890380859375	-0.5395838012695312	0		3.360030029296875	-0.46141909790039065	0		4.6395771484375	-0.27188400268554686	0		5.99585986328125	0.5177124633789062	0		-0.23034066772460937	5.8993525390625	0		
-0.006532208919525146	0.004348618984222412	0		0.4801670227050781	-2.34313818359375	0		-0.9433681640625	0.10046530914306641	0		-0.62600732421875	-2.42684765625	0		1.754288818359375	-0.5624574584960937	0		3.396599365234375	-0.47167684936523435	0		4.6494677734375	-0.2578523864746094	0		5.9997216796875	0.5267610473632812	0		-0.19627796936035155	5.9052939453125	0		
0.019127424240112306	0.0034075989723205565	0		0.5046592102050781	-2.34808984375	0		-0.9386371459960937	0.10484248352050782	0		-0.6006231689453125	-2.439757080078125	0		1.7447938232421876	-0.5730302734375	0		3.400315185546875	-0.46650057983398435	0		4.64912939453125	-0.2576855163574219	0		6.0123173828125	0.518693359375	0		-0.06303821563720703	5.92597216796875	0		
-0.011280285835266112	0.0012201770544052123	0		0.4731402587890625	-2.3492900390625	0		-0.9390029296875	0.10531464385986328	0		-0.6023970336914063	-2.4602880859375	0		1.74724853515625	-0.5837381591796875	0		3.408892333984375	-0.4683749389648437	0		4.65974365234375	-0.2576521606445312	0		6.0119736328125	0.5187979736328125	0		-0.1973583984375	5.9071455078125	0		
-0.011696026802062989	0.0016709619760513306	0		0.49752493286132815	-2.354193115234375	0		-0.945346923828125	0.11089559936523438	0		-0.5842142944335937	-2.480051025390625	0		1.73952587890625	-0.6042927856445313	0		3.395412109375	-0.4709458923339844	0		4.691271484375	-0.2608821105957031	0		6.00258740234375	0.5190281982421875	0		-0.2315049591064453	5.9030517578125	0		
-0.012153825759887694	0.002149924039840698	0		0.4429981384277344	-2.348034912109375	0		-0.935812255859375	0.1102984619140625	0		-0.6071061401367187	-2.5012470703125	0		1.7527286376953124	-0.6270994262695313	0		3.394926513671875	-0.4706685485839844	0		4.66599755859375	-0.24535415649414063	0		6.01115966796875	0.5190330200195312	0		-0.19656402587890626	5.90708349609375	0		
